nColumns=19
nRows=92
DataType=double
version=3
OpenSimVersion=4.1
endheader
time	ground_force_1_vx	ground_force_1_vy	ground_force_1_vz	ground_force_1_px	ground_force_1_py	ground_force_1_pz	ground_force_1_mx	ground_force_1_my	ground_force_1_mz	ground_force_2_vx	ground_force_2_vy	ground_force_2_vz	ground_force_2_px	ground_force_2_py	ground_force_2_pz	ground_force_2_mx	ground_force_2_my	ground_force_2_mz
0	-13.8638	75.4579	7.65991	0.0916214	0.006	-0.179996	0	0.488056	0	0	0	0	0.671222	0	-0.230967	0	0	0
0.01	-20.7855	107.531	8.68278	0.100098	0.006	-0.180292	0	0.498842	0	0	0	0	0.671222	0	-0.230967	0	0	0
0.02	-29.0597	145.016	9.55425	0.107606	0.006	-0.180306	0	0.520782	0	0	0	0	0.671222	0	-0.230967	0	0	0
0.03	-38.6489	187.402	10.1426	0.113658	0.006	-0.18011	0	0.54663	0	0	0	0	0.671222	0	-0.230967	0	0	0
0.04	-49.4286	233.771	10.2991	0.118919	0.006	-0.17978	0	0.571555	0	0	0	0	0.671222	0	-0.230967	0	0	0
0.05	-61.1617	282.993	9.8855	0.123746	0.006	-0.179355	0	0.591408	0	0	0	0	0.671222	0	-0.230967	0	0	0
0.06	-73.5035	333.887	8.79009	0.128323	0.006	-0.178855	0	0.601229	0	0	0	0	0.671222	0	-0.230967	0	0	0
0.07	-86.0427	385.262	6.94123	0.132732	0.006	-0.178295	0	0.594957	0	0	0	0	0.671222	0	-0.230967	0	0	0
0.08	-98.3314	435.914	4.33546	0.136992	0.006	-0.177695	0	0.567783	0	0	0	0	0.671222	0	-0.230967	0	0	0
0.09	-109.896	484.626	1.06063	0.141084	0.006	-0.177074	0	0.519641	0	0	0	0	0.671222	0	-0.230967	0	0	0
0.1	-120.257	530.188	-2.70637	0.144976	0.006	-0.176456	0	0.455266	0	0	0	0	0.671222	0	-0.230967	0	0	0
0.11	-128.997	571.526	-6.74941	0.148638	0.006	-0.175856	0	0.379344	0	0	0	0	0.671222	0	-0.230967	0	0	0
0.12	-135.815	607.812	-10.8567	0.152059	0.006	-0.175283	0	0.293826	0	0	0	0	0.671222	0	-0.230967	0	0	0
0.13	-140.528	638.466	-14.8292	0.155241	0.006	-0.174744	0	0.1993	0	0	0	0	0.671222	0	-0.230967	0	0	0
0.14	-143.066	663.126	-18.4888	0.158193	0.006	-0.174243	0	0.096039	0	0	0	0	0.671222	0	-0.230967	0	0	0
0.15	-143.465	681.623	-21.6947	0.160933	0.006	-0.173781	0	-0.016235	0	0	0	0	0.671222	0	-0.230967	0	0	0
0.16	-141.845	693.964	-24.3501	0.163483	0.006	-0.173359	0	-0.137969	0	0	0	0	0.671222	0	-0.230967	0	0	0
0.17	-138.398	700.311	-26.398	0.165869	0.006	-0.172974	0	-0.269136	0	0	0	0	0.671222	0	-0.230967	0	0	0
0.18	-133.374	700.972	-27.8194	0.168121	0.006	-0.172625	0	-0.409205	0	0	0	0	0.671222	0	-0.230967	0	0	0
0.19	-127.053	696.406	-28.6281	0.170268	0.006	-0.172309	0	-0.557222	0	0	0	0	0.671222	0	-0.230967	0	0	0
0.2	-119.728	687.206	-28.8666	0.172336	0.006	-0.172026	0	-0.712093	0	0	0	0	0.671222	0	-0.230967	0	0	0
0.21	-111.681	674.077	-28.599	0.174343	0.006	-0.171774	0	-0.872831	0	0	0	0	0.671222	0	-0.230967	0	0	0
0.22	-103.162	657.8	-27.9051	0.176302	0.006	-0.171553	0	-1.03862	0	0	0	0	0.671222	0	-0.230967	0	0	0
0.23	-94.3853	639.195	-26.875	0.178218	0.006	-0.171359	0	-1.20871	0	0	0	0	0.671222	0	-0.230967	0	0	0
0.24	-85.5351	619.07	-25.6048	0.180097	0.006	-0.171192	0	-1.38238	0	0	0	0	0.671222	0	-0.230967	0	0	0
0.25	-76.7689	598.185	-24.1902	0.181944	0.006	-0.171045	0	-1.55884	0	0	0	0	0.671222	0	-0.230967	0	0	0
0.26	-68.2241	577.219	-22.7215	0.183772	0.006	-0.170911	0	-1.7371	0	0	0	0	0.671222	0	-0.230967	0	0	0
0.27	-60.0192	556.764	-21.2775	0.185604	0.006	-0.170782	0	-1.916	0	0	0	0	0.671222	0	-0.230967	0	0	0
0.28	-52.2515	537.332	-19.9208	0.187469	0.006	-0.170648	0	-2.09448	0	0	0	0	0.671222	0	-0.230967	0	0	0
0.29	-44.9953	519.361	-18.6968	0.189403	0.006	-0.170503	0	-2.27161	0	0	0	0	0.671222	0	-0.230967	0	0	0
0.3	-38.3015	503.228	-17.6325	0.191443	0.006	-0.170341	0	-2.44676	0	0	0	0	0.671222	0	-0.230967	0	0	0
0.31	-32.1977	489.25	-16.741	0.193623	0.006	-0.170158	0	-2.61972	0	0	0	0	0.671222	0	-0.230967	0	0	0
0.32	-26.6879	477.682	-16.0253	0.195972	0.006	-0.169955	0	-2.79066	0	0	0	0	0.671222	0	-0.230967	0	0	0
0.33	-21.7529	468.717	-15.4842	0.198505	0.006	-0.169734	0	-2.95998	0	0	0	0	0.671222	0	-0.230967	0	0	0
0.34	-17.35	462.482	-15.1169	0.20123	0.006	-0.169495	0	-3.12809	0	0	0	0	0.671222	0	-0.230967	0	0	0
0.35	-13.4167	459.041	-14.9258	0.204139	0.006	-0.16924	0	-3.29527	0	0	0	0	0.671222	0	-0.230967	0	0	0
0.36	-9.87666	458.395	-14.9174	0.207218	0.006	-0.168969	0	-3.46143	0	0	0	0	0.671222	0	-0.230967	0	0	0
0.37	-6.64566	460.494	-15.1009	0.210448	0.006	-0.168681	0	-3.62587	0	0	0	0	0.671222	0	-0.230967	0	0	0
0.38	-3.63778	465.233	-15.4863	0.213806	0.006	-0.168376	0	-3.78705	0	0	0	0	0.671222	0	-0.230967	0	0	0
0.39	-0.769875	472.46	-16.0815	0.217275	0.006	-0.168053	0	-3.94249	0	0	0	0	0.671222	0	-0.230967	0	0	0
0.4	2.03448	481.98	-16.8906	0.220838	0.006	-0.167715	0	-4.08866	0	0	0	0	0.671222	0	-0.230967	0	0	0
0.41	4.84191	493.554	-17.9113	0.224484	0.006	-0.167363	0	-4.22114	0	0	0	0	0.671222	0	-0.230967	0	0	0
0.42	7.70706	506.909	-19.1315	0.228208	0.006	-0.167005	0	-4.33482	0	0	0	0	0.671222	0	-0.230967	0	0	0
0.43	10.6723	521.739	-20.5258	0.232004	0.006	-0.166646	0	-4.42453	0	0	0	0	0.671222	0	-0.230967	0	0	0
0.44	13.7709	537.708	-22.0537	0.235869	0.006	-0.166298	0	-4.48581	0	0	0	0	0.671222	0	-0.230967	0	0	0
0.45	17.0311	554.458	-23.6615	0.239795	0.006	-0.16597	0	-4.51556	0	0	0	0	0.671222	0	-0.230967	0	0	0
0.46	20.4785	571.607	-25.2839	0.24377	0.006	-0.165674	0	-4.51234	0	0	0	0	0.671222	0	-0.230967	0	0	0
0.47	24.1367	588.756	-26.8491	0.247777	0.006	-0.165419	0	-4.47663	0	0	0	0	0.671222	0	-0.230967	0	0	0
0.48	28.0261	605.494	-28.2845	0.251791	0.006	-0.165212	0	-4.4107	0	0	0	0	0.671222	0	-0.230967	0	0	0
0.49	32.1609	621.399	-29.5226	0.255786	0.006	-0.165055	0	-4.31803	0	0	0	0	0.671222	0	-0.230967	0	0	0
0.5	36.5454	636.042	-30.5073	0.259736	0.006	-0.164948	0	-4.20265	0	0	0	0	0.671222	0	-0.230967	0	0	0
0.51	41.172	648.992	-31.1976	0.263616	0.006	-0.164887	0	-4.06869	0	0	0	0	0.671222	0	-0.230967	0	0	0
0.52	46.0217	659.819	-31.5647	0.267402	0.006	-0.164867	0	-3.92038	0	0	0	0	0.671222	0	-0.230967	0	0	0
0.53	51.0649	668.101	-31.5911	0.271074	0.006	-0.164884	0	-3.76192	0	0	0	0	0.671222	0	-0.230967	0	0	0
0.54	56.2601	673.428	-31.2704	0.274613	0.006	-0.164932	0	-3.59707	0	0	0	0	0.671222	0	-0.230967	0	0	0
0.55	61.5484	675.409	-30.6073	0.278005	0.006	-0.165007	0	-3.42892	0	0	0	0	0.671222	0	-0.230967	0	0	0
0.56	66.845	673.68	-29.6185	0.281239	0.006	-0.165102	0	-3.25944	0	2.38181	27.9889	-7.89933	0.692961	0.006	-0.239573	0	0.120577	0
0.57	72.0335	667.906	-28.3316	0.284315	0.006	-0.165213	0	-3.08933	0	1.4942	44.5621	-9.44322	0.726622	0.006	-0.252405	0	0.218792	0
0.58	76.9631	657.802	-26.7835	0.287238	0.006	-0.165337	0	-2.91819	0	-0.00726638	64.6448	-11.0592	0.746423	0.006	-0.259433	0	0.266317	0
0.59	81.4536	643.149	-25.0165	0.29002	0.006	-0.165469	0	-2.74487	0	-2.27036	88.2196	-12.6561	0.760012	0.006	-0.263856	0	0.288551	0
0.6	85.3073	623.814	-23.0747	0.29268	0.006	-0.165607	0	-2.5681	0	-5.42603	115.06	-14.1133	0.770404	0.006	-0.266931	0	0.295104	0
0.61	88.3236	599.776	-21.0026	0.29524	0.006	-0.165747	0	-2.38709	0	-9.5009	144.864	-15.2972	0.779021	0.006	-0.269272	0	0.291345	0
0.62	90.3136	571.148	-18.8451	0.297725	0.006	-0.165886	0	-2.20172	0	-14.4283	177.341	-16.0691	0.786587	0.006	-0.27121	0	0.280686	0
0.63	91.1153	538.193	-16.6482	0.300159	0.006	-0.166018	0	-2.0124	0	-20.0893	212.175	-16.3017	0.793477	0.006	-0.272928	0	0.26496	0
0.64	90.6062	501.336	-14.4604	0.30257	0.006	-0.166138	0	-1.81972	0	-26.3071	248.98	-15.9042	0.799883	0.006	-0.274522	0	0.244316	0
0.65	88.7106	461.15	-12.3308	0.304985	0.006	-0.166236	0	-1.62456	0	-32.8622	287.225	-14.8332	0.805901	0.006	-0.276038	0	0.216794	0
0.66	85.4081	418.349	-10.3043	0.307433	0.006	-0.166304	0	-1.42847	0	-39.5044	326.18	-13.1037	0.811578	0.006	-0.277497	0	0.178495	0
0.67	80.7449	373.767	-8.41757	0.309951	0.006	-0.166331	0	-1.234	0	-45.9676	364.95	-10.7957	0.816952	0.006	-0.278904	0	0.124728	0
0.68	74.8357	328.339	-6.69994	0.312582	0.006	-0.166309	0	-1.04435	0	-52.0253	402.635	-8.03072	0.822069	0.006	-0.280267	0	0.052281	0
0.69	67.8659	283.067	-5.17561	0.315382	0.006	-0.166225	0	-0.86268	0	-57.5268	438.511	-4.94219	0.826992	0.006	-0.281593	0	-0.038554	0
0.7	60.0936	238.978	-3.86172	0.318428	0.006	-0.166065	0	-0.691873	0	-62.3815	472.103	-1.67577	0.831778	0.006	-0.28289	0	-0.144342	0
0.71	51.837	197.053	-2.7642	0.321832	0.006	-0.165807	0	-0.534553	0	-66.5346	503.133	1.60615	0.836472	0.006	-0.284158	0	-0.25956	0
0.72	43.4495	158.153	-1.87586	0.325762	0.006	-0.165413	0	-0.392788	0	-69.9469	531.432	4.7434	0.8411	0.006	-0.285396	0	-0.37636	0
0.73	35.2864	122.95	-1.17742	0.330502	0.006	-0.164821	0	-0.26795	0	-72.594	556.879	7.60627	0.845677	0.006	-0.286603	0	-0.48461	0
0.74	27.6615	91.891	-0.641021	0.33657	0.006	-0.163909	0	-0.160506	0	-74.4664	579.366	10.1087	0.850204	0.006	-0.287777	0	-0.573453	0
0.75	20.8123	65.1958	-0.236761	0.345019	0.006	-0.162425	0	-0.069972	0	-75.5698	598.778	12.2072	0.854675	0.006	-0.288922	0	-0.632932	0
0.76	14.8848	42.8793	0.0621047	0.35834	0.006	-0.159768	0	0.005153	0	-75.9254	615.01	13.8969	0.859081	0.006	-0.290041	0	-0.654895	0
0.77	9.9305	24.7812	0.276167	0.38407	0.006	-0.154105	0	0.06768	0	-75.565	627.978	15.2004	0.86341	0.006	-0.291142	0	-0.633836	0
0.78	0	0	0	0.416153	0	-0.152913	0	0	0	-74.5297	637.657	16.1552	0.86765	0.006	-0.29223	0	-0.567236	0
0.79	0	0	0	0.444388	0	-0.154662	0	0	0	-72.8694	644.098	16.8006	0.871792	0.006	-0.293311	0	-0.455423	0
0.8	0	0	0	0.472623	0	-0.156411	0	0	0	-70.6437	647.446	17.1706	0.875828	0.006	-0.294389	0	-0.301196	0
0.81	0	0	0	0.500857	0	-0.15816	0	0	0	-67.9222	647.939	17.2904	0.879754	0.006	-0.295465	0	-0.109167	0
0.82	0	0	0	0.529092	0	-0.159909	0	0	0	-64.7828	645.878	17.1776	0.883571	0.006	-0.296535	0	0.114939	0
0.83	0	0	0	0.557327	0	-0.161658	0	0	0	-61.3093	641.603	16.8486	0.887279	0.006	-0.297598	0	0.364802	0
0.84	0	0	0	0.585562	0	-0.163407	0	0	0	-57.5881	635.458	16.324	0.89088	0.006	-0.298647	0	0.633897	0
0.85	0	0	0	0.613797	0	-0.165156	0	0	0	-53.7058	627.773	15.6332	0.894376	0.006	-0.299679	0	0.915793	0
0.86	0	0	0	0.642032	0	-0.166905	0	0	0	-49.7442	618.85	14.8166	0.897771	0.006	-0.30069	0	1.20421	0
0.87	0	0	0	0.670267	0	-0.168654	0	0	0	-45.776	608.956	13.9245	0.901066	0.006	-0.301678	0	1.49323	0
0.88	0	0	0	0.698502	0	-0.170403	0	0	0	-41.8599	598.326	13.0152	0.904266	0.006	-0.302642	0	1.77744	0
0.89	0	0	0	0.726737	0	-0.172152	0	0	0	-38.0386	587.178	12.1503	0.907379	0.006	-0.303582	0	2.05208	0
0.9	0	0	0	0.754972	0	-0.173901	0	0	0	-34.3374	575.728	11.3874	0.910412	0.006	-0.304498	0	2.31346	0
0.91	0	0	0	0.783207	0	-0.17565	0	0	0	-30.7614	564.213	10.7722	0.913373	0.006	-0.305389	0	2.55931	0
